<svg width="542" height="337" viewBox="0 0 542 337" fill="none" xmlns="http://www.w3.org/2000/svg">
<path d="M142.608 179.568H106.896C105.744 179.568 104.904 179.304 104.376 178.776C103.848 178.248 103.584 177.408 103.584 176.256V166.608C103.584 165.552 103.728 164.664 104.016 163.944C104.352 163.176 104.856 162.432 105.528 161.712L122.088 141.624H108.192C107.04 141.624 106.2 141.36 105.672 140.832C105.144 140.304 104.88 139.464 104.88 138.312V129.6C104.88 128.976 104.952 128.448 105.096 128.016C105.288 127.584 105.552 127.224 105.888 126.936L115.176 119.088C115.416 118.896 115.728 118.752 116.112 118.656C116.544 118.512 117 118.44 117.48 118.44H150.6C151.752 118.44 152.592 118.704 153.12 119.232C153.648 119.76 153.912 120.6 153.912 121.752V132.48C153.912 133.536 153.744 134.448 153.408 135.216C153.12 135.984 152.64 136.728 151.968 137.448L136.2 156.528H151.896C153.048 156.528 153.888 156.792 154.416 157.32C154.944 157.848 155.208 158.688 155.208 159.84V168.408C155.208 169.032 155.112 169.56 154.92 169.992C154.776 170.424 154.536 170.784 154.2 171.072L144.84 178.848C144.648 179.04 144.336 179.208 143.904 179.352C143.52 179.496 143.088 179.568 142.608 179.568ZM151.896 171C152.808 171 153.456 170.808 153.84 170.424C154.272 169.992 154.488 169.32 154.488 168.408V159.84C154.488 158.928 154.272 158.28 153.84 157.896C153.456 157.464 152.808 157.248 151.896 157.248H134.688L151.392 137.016C152.016 136.344 152.472 135.672 152.76 135C153.048 134.28 153.192 133.44 153.192 132.48V121.752C153.192 120.84 152.976 120.192 152.544 119.808C152.16 119.376 151.512 119.16 150.6 119.16H117.48C116.568 119.16 115.896 119.376 115.464 119.808C115.08 120.192 114.888 120.84 114.888 121.752V130.464C114.888 131.376 115.08 132.048 115.464 132.48C115.896 132.864 116.568 133.056 117.48 133.056H132.888L115.392 154.296C114.768 154.968 114.312 155.664 114.024 156.384C113.736 157.056 113.592 157.848 113.592 158.76V168.408C113.592 169.32 113.784 169.992 114.168 170.424C114.6 170.808 115.272 171 116.184 171H151.896ZM144.336 131.832L123.24 158.904C122.904 159.336 122.64 159.696 122.448 159.984C122.304 160.272 122.232 160.656 122.232 161.136V162.144C122.232 162.816 122.376 163.272 122.664 163.512C123 163.704 123.36 163.8 123.744 163.8H148.008V164.52H123.744C122.976 164.52 122.4 164.328 122.016 163.944C121.68 163.56 121.512 162.96 121.512 162.144V160.992C121.512 160.464 121.632 160.008 121.872 159.624C122.112 159.192 122.4 158.76 122.736 158.328L143.832 131.256C144.168 130.824 144.408 130.464 144.552 130.176C144.744 129.888 144.84 129.504 144.84 129.024V128.016C144.84 127.344 144.672 126.912 144.336 126.72C144.048 126.48 143.712 126.36 143.328 126.36H121.368V125.64H143.328C144.096 125.64 144.648 125.832 144.984 126.216C145.368 126.6 145.56 127.2 145.56 128.016V129.168C145.56 129.696 145.44 130.176 145.2 130.608C144.96 130.992 144.672 131.4 144.336 131.832ZM196.663 179.568H163.255C162.103 179.568 161.263 179.304 160.735 178.776C160.207 178.248 159.943 177.408 159.943 176.256V129.6C159.943 128.976 160.015 128.448 160.159 128.016C160.351 127.584 160.615 127.224 160.951 126.936L170.239 119.088C170.479 118.896 170.791 118.752 171.175 118.656C171.607 118.512 172.063 118.44 172.543 118.44H205.951C207.103 118.44 207.943 118.704 208.471 119.232C208.999 119.76 209.263 120.6 209.263 121.752V130.176C209.263 130.8 209.167 131.328 208.975 131.76C208.831 132.192 208.591 132.552 208.255 132.84L202.063 137.952C202.543 138.192 202.879 138.552 203.071 139.032C203.311 139.512 203.431 140.136 203.431 140.904V148.608C203.431 149.232 203.335 149.76 203.143 150.192C202.999 150.624 202.759 150.984 202.423 151.272L196.015 156.672H205.951C207.103 156.672 207.943 156.936 208.471 157.464C208.999 157.992 209.263 158.832 209.263 159.984V168.408C209.263 169.032 209.167 169.56 208.975 169.992C208.831 170.424 208.591 170.784 208.255 171.072L198.895 178.848C198.703 179.04 198.391 179.208 197.959 179.352C197.575 179.496 197.143 179.568 196.663 179.568ZM205.951 171C206.863 171 207.511 170.808 207.895 170.424C208.327 169.992 208.543 169.32 208.543 168.408V159.984C208.543 159.072 208.327 158.424 207.895 158.04C207.511 157.608 206.863 157.392 205.951 157.392H186.079V151.2H200.119C201.031 151.2 201.679 151.008 202.063 150.624C202.495 150.192 202.711 149.52 202.711 148.608V140.904C202.711 139.992 202.495 139.344 202.063 138.96C201.679 138.528 201.031 138.312 200.119 138.312H186.079V132.768H205.951C206.863 132.768 207.511 132.576 207.895 132.192C208.327 131.76 208.543 131.088 208.543 130.176V121.752C208.543 120.84 208.327 120.192 207.895 119.808C207.511 119.376 206.863 119.16 205.951 119.16H172.543C171.631 119.16 170.959 119.376 170.527 119.808C170.143 120.192 169.951 120.84 169.951 121.752V168.408C169.951 169.32 170.143 169.992 170.527 170.424C170.959 170.808 171.631 171 172.543 171H205.951ZM202.063 163.8V164.52H177.799V125.64H202.063V126.36H178.519V144.432H196.231V145.152H178.519V163.8H202.063ZM233.736 126.216L260.232 156.024V125.64H260.952V164.52H260.232V157.104L233.016 126.576C232.968 126.528 232.896 126.48 232.8 126.432C232.752 126.384 232.704 126.36 232.656 126.36C232.608 126.36 232.56 126.384 232.512 126.432C232.512 126.48 232.512 126.528 232.512 126.576V164.52H231.792V126.432C231.792 126.144 231.888 125.928 232.08 125.784C232.272 125.64 232.464 125.568 232.656 125.568C232.848 125.568 233.016 125.616 233.16 125.712C233.304 125.808 233.496 125.976 233.736 126.216ZM237.624 171C238.536 171 239.184 170.808 239.568 170.424C240 169.992 240.216 169.32 240.216 168.408V144.648L252.528 159.552V168.408C252.528 169.32 252.72 169.992 253.104 170.424C253.536 170.808 254.208 171 255.12 171H265.92C266.832 171 267.48 170.808 267.864 170.424C268.296 169.992 268.512 169.32 268.512 168.408V121.752C268.512 120.84 268.296 120.192 267.864 119.808C267.48 119.376 266.832 119.16 265.92 119.16H255.12C254.208 119.16 253.536 119.376 253.104 119.808C252.72 120.192 252.528 120.84 252.528 121.752V137.088L238.56 121.104C237.936 120.384 237.288 119.88 236.616 119.592C235.992 119.304 235.224 119.16 234.312 119.16H226.824C225.912 119.16 225.24 119.376 224.808 119.808C224.424 120.192 224.232 120.84 224.232 121.752V168.408C224.232 169.32 224.424 169.992 224.808 170.424C225.24 170.808 225.912 171 226.824 171H237.624ZM239.928 171.072L230.568 178.848C230.376 179.04 230.064 179.208 229.632 179.352C229.248 179.496 228.816 179.568 228.336 179.568H217.536C216.384 179.568 215.544 179.304 215.016 178.776C214.488 178.248 214.224 177.408 214.224 176.256V129.6C214.224 128.976 214.296 128.448 214.44 128.016C214.632 127.584 214.896 127.224 215.232 126.936L224.52 119.088C224.76 118.896 225.072 118.752 225.456 118.656C225.888 118.512 226.344 118.44 226.824 118.44H234.312C235.368 118.44 236.256 118.608 236.976 118.944C237.696 119.28 238.416 119.832 239.136 120.6L244.104 126.36L252.816 119.088C253.056 118.896 253.368 118.752 253.752 118.656C254.184 118.512 254.64 118.44 255.12 118.44H265.92C267.072 118.44 267.912 118.704 268.44 119.232C268.968 119.76 269.232 120.6 269.232 121.752V168.408C269.232 169.032 269.136 169.56 268.944 169.992C268.8 170.424 268.56 170.784 268.224 171.072L258.864 178.848C258.672 179.04 258.36 179.208 257.928 179.352C257.544 179.496 257.112 179.568 256.632 179.568H245.832C244.68 179.568 243.84 179.304 243.312 178.776C242.784 178.248 242.52 177.408 242.52 176.256V167.688L240.936 165.744V168.408C240.936 169.032 240.84 169.56 240.648 169.992C240.504 170.424 240.264 170.784 239.928 171.072ZM300.807 179.568H289.143C287.991 179.568 287.151 179.304 286.623 178.776C286.095 178.248 285.831 177.408 285.831 176.256V141.624H275.967C274.815 141.624 273.975 141.36 273.447 140.832C272.919 140.304 272.655 139.464 272.655 138.312V129.6C272.655 128.976 272.727 128.448 272.871 128.016C273.063 127.584 273.327 127.224 273.663 126.936L282.951 119.088C283.191 118.896 283.503 118.752 283.887 118.656C284.319 118.512 284.775 118.44 285.255 118.44H323.271C324.423 118.44 325.263 118.704 325.791 119.232C326.319 119.76 326.583 120.6 326.583 121.752V130.464C326.583 131.088 326.487 131.616 326.295 132.048C326.151 132.48 325.911 132.84 325.575 133.128L316.215 140.904C316.023 141.096 315.711 141.264 315.279 141.408C314.895 141.552 314.463 141.624 313.983 141.624H313.407V168.408C313.407 169.032 313.311 169.56 313.119 169.992C312.975 170.424 312.735 170.784 312.399 171.072L303.039 178.848C302.847 179.04 302.535 179.208 302.103 179.352C301.719 179.496 301.287 179.568 300.807 179.568ZM310.095 171C311.007 171 311.655 170.808 312.039 170.424C312.471 169.992 312.687 169.32 312.687 168.408V133.056H323.271C324.183 133.056 324.831 132.864 325.215 132.48C325.647 132.048 325.863 131.376 325.863 130.464V121.752C325.863 120.84 325.647 120.192 325.215 119.808C324.831 119.376 324.183 119.16 323.271 119.16H285.255C284.343 119.16 283.671 119.376 283.239 119.808C282.855 120.192 282.663 120.84 282.663 121.752V130.464C282.663 131.376 282.855 132.048 283.239 132.48C283.671 132.864 284.343 133.056 285.255 133.056H295.839V168.408C295.839 169.32 296.031 169.992 296.415 170.424C296.847 170.808 297.519 171 298.431 171H310.095ZM303.903 164.52V126.36H289.143V125.64H319.383V126.36H304.623V164.52H303.903ZM362.861 179.568H332.189C331.037 179.568 330.197 179.304 329.669 178.776C329.141 178.248 328.877 177.408 328.877 176.256V167.688C328.877 167.064 328.949 166.536 329.093 166.104C329.285 165.672 329.549 165.312 329.885 165.024L338.597 157.68V141.624H332.189C331.037 141.624 330.197 141.36 329.669 140.832C329.141 140.304 328.877 139.464 328.877 138.312V129.6C328.877 128.976 328.949 128.448 329.093 128.016C329.285 127.584 329.549 127.224 329.885 126.936L339.173 119.088C339.413 118.896 339.725 118.752 340.109 118.656C340.541 118.512 340.997 118.44 341.477 118.44H372.149C373.301 118.44 374.141 118.704 374.669 119.232C375.197 119.76 375.461 120.6 375.461 121.752V130.464C375.461 131.088 375.365 131.616 375.173 132.048C375.029 132.48 374.789 132.84 374.453 133.128L365.885 140.328V156.528H372.149C373.301 156.528 374.141 156.792 374.669 157.32C375.197 157.848 375.461 158.688 375.461 159.84V168.408C375.461 169.032 375.365 169.56 375.173 169.992C375.029 170.424 374.789 170.784 374.453 171.072L365.093 178.848C364.901 179.04 364.589 179.208 364.157 179.352C363.773 179.496 363.341 179.568 362.861 179.568ZM341.477 171H372.149C373.061 171 373.709 170.808 374.093 170.424C374.525 169.992 374.741 169.32 374.741 168.408V159.84C374.741 158.928 374.525 158.28 374.093 157.896C373.709 157.464 373.061 157.248 372.149 157.248H365.165V133.056H372.149C373.061 133.056 373.709 132.864 374.093 132.48C374.525 132.048 374.741 131.376 374.741 130.464V121.752C374.741 120.84 374.525 120.192 374.093 119.808C373.709 119.376 373.061 119.16 372.149 119.16H341.477C340.565 119.16 339.893 119.376 339.461 119.808C339.077 120.192 338.885 120.84 338.885 121.752V130.464C338.885 131.376 339.077 132.048 339.461 132.48C339.893 132.864 340.565 133.056 341.477 133.056H348.605V157.248H341.477C340.565 157.248 339.893 157.464 339.461 157.896C339.077 158.28 338.885 158.928 338.885 159.84V168.408C338.885 169.32 339.077 169.992 339.461 170.424C339.893 170.808 340.565 171 341.477 171ZM368.261 164.52H345.365V163.8H356.525V126.36H345.365V125.64H368.261V126.36H357.245V163.8H368.261V164.52ZM399.371 164.52H398.651V125.64H399.371V144.792H414.995L423.275 125.64H424.067L415.787 144.792H418.739C421.667 144.792 423.851 145.344 425.291 146.448C426.731 147.552 427.451 149.352 427.451 151.848V164.52H426.731V151.848C426.731 149.544 426.059 147.912 424.715 146.952C423.371 145.992 421.379 145.512 418.739 145.512H399.371V164.52ZM404.555 171C405.467 171 406.115 170.808 406.499 170.424C406.931 169.992 407.147 169.32 407.147 168.408V151.92H416.651C417.419 151.92 417.995 152.136 418.379 152.568C418.763 153 418.955 153.6 418.955 154.368V168.408C418.955 169.32 419.147 169.992 419.531 170.424C419.963 170.808 420.635 171 421.547 171H432.635C433.547 171 434.195 170.808 434.579 170.424C435.011 169.992 435.227 169.32 435.227 168.408V148.104C435.227 145.224 434.411 142.92 432.779 141.192C431.195 139.416 429.059 138.456 426.371 138.312L433.715 121.536C434.051 120.768 434.075 120.192 433.787 119.808C433.499 119.376 432.947 119.16 432.131 119.16H421.043C420.131 119.16 419.387 119.352 418.811 119.736C418.235 120.072 417.779 120.672 417.443 121.536L410.027 138.312H407.147V121.752C407.147 120.84 406.931 120.192 406.499 119.808C406.115 119.376 405.467 119.16 404.555 119.16H393.395C392.483 119.16 391.811 119.376 391.379 119.808C390.995 120.192 390.803 120.84 390.803 121.752V168.408C390.803 169.32 390.995 169.992 391.379 170.424C391.811 170.808 392.483 171 393.395 171H404.555ZM406.859 171.072L397.499 178.848C397.307 179.04 396.995 179.208 396.563 179.352C396.179 179.496 395.747 179.568 395.267 179.568H384.107C382.955 179.568 382.115 179.304 381.587 178.776C381.059 178.248 380.795 177.408 380.795 176.256V129.6C380.795 128.976 380.867 128.448 381.011 128.016C381.203 127.584 381.467 127.224 381.803 126.936L391.091 119.088C391.331 118.896 391.643 118.752 392.027 118.656C392.459 118.512 392.915 118.44 393.395 118.44H404.555C405.707 118.44 406.547 118.704 407.075 119.232C407.603 119.76 407.867 120.6 407.867 121.752V128.304C408.011 128.112 408.155 127.92 408.299 127.728C408.443 127.488 408.611 127.296 408.803 127.152L418.091 119.304C418.427 119.016 418.835 118.8 419.315 118.656C419.843 118.512 420.419 118.44 421.043 118.44H432.131C433.331 118.44 434.123 118.752 434.507 119.376C434.891 119.952 434.843 120.768 434.363 121.824L427.451 137.664C430.043 138 432.107 139.104 433.643 140.976C435.179 142.848 435.947 145.224 435.947 148.104V168.408C435.947 169.032 435.851 169.56 435.659 169.992C435.515 170.424 435.275 170.784 434.939 171.072L425.579 178.848C425.387 179.04 425.075 179.208 424.643 179.352C424.259 179.496 423.827 179.568 423.347 179.568H412.259C411.107 179.568 410.267 179.304 409.739 178.776C409.211 178.248 408.947 177.408 408.947 176.256V162.216C408.947 161.736 408.851 161.352 408.659 161.064C408.467 160.776 408.203 160.608 407.867 160.56V168.408C407.867 169.032 407.771 169.56 407.579 169.992C407.435 170.424 407.195 170.784 406.859 171.072Z" fill="white"/>
<rect x="255" y="211" width="24" height="24" fill="#00FFFF"/>
<rect x="198" y="211" width="24" height="24" fill="#FFFF00"/>
<rect x="141" y="211" width="24" height="24" fill="#FF0000"/>
<rect x="312" y="211" width="24" height="24" fill="#0000FF"/>
<rect x="369" y="211" width="24" height="24" fill="#FF00FF"/>
</svg>
